<svg width="25" height="27" viewBox="0 0 25 27" fill="none" xmlns="http://www.w3.org/2000/svg">
<path fill-rule="evenodd" clip-rule="evenodd" d="M12.6999 26.8564C11.611 26.8515 10.7321 25.9647 10.7369 24.8758L10.7715 17.0729L3.82448 21.0837C2.8814 21.6283 1.67549 21.3051 1.131 20.3621C0.586515 19.419 0.909638 18.2131 1.85272 17.6686L8.53857 13.8085L1.78699 9.91049C0.843912 9.366 0.52079 8.16009 1.06528 7.21701C1.60976 6.27394 2.81567 5.95082 3.75875 6.4953L10.8003 10.5608L10.8359 2.52946C10.8408 1.44051 11.7274 0.561639 12.8164 0.566464C13.9054 0.571288 14.7842 1.45798 14.7794 2.54694L14.7454 10.225L21.2054 6.4953C22.1486 5.95082 23.3544 6.27394 23.899 7.21701C24.4434 8.16009 24.1203 9.366 23.1772 9.91049L16.4256 13.8085L23.1114 17.6686C24.0546 18.2131 24.3777 19.419 23.8332 20.3621C23.2886 21.3051 22.0828 21.6283 21.1397 21.0837L14.7137 17.3738L14.6803 24.8933C14.6756 25.9822 13.7889 26.8611 12.6999 26.8564Z" fill="white"/>
</svg>
